<svg id="Layer_1" data-name="Layer 1" xmlns="http://www.w3.org/2000/svg" width="280" height="448" viewBox="0 0 280 448"><defs><style>.cls-1{fill:#6fa2b2;}.cls-2{fill:#eac6bb;}.cls-3{fill:#eb96be;}.cls-4{fill:#dc76b1;}.cls-5{opacity:0.61;}.cls-6{fill:#dbada2;}.cls-7{fill:#f4f4f4;}.cls-8{opacity:0.47;}</style></defs><title>nakedsnap</title><rect class="cls-1" x="0.5832" width="280" height="448"/><path class="cls-2" d="M261.14,170H17.026c-6.2935,0-1.4428-4.4-1.4428-11l-10-99c0-6.6,5.1493-12,11.4428-12l87.7286-9H178.18L261.14,48c6.2936,0,11.4429,5.4,11.4429,12l-7,105C265.5832,171.6,267.4339,170,261.14,170Z"/><path class="cls-2" d="M23.5832,152h-11A12.043,12.043,0,0,1,1.53,144.6594,11.8913,11.8913,0,0,1,.5832,140V60a12.0353,12.0353,0,0,1,12-12h11a12.0353,12.0353,0,0,1,12,12v80A12.0353,12.0353,0,0,1,23.5832,152Z"/><path class="cls-2" d="M260.1276,152.28l-10.96-.9383a12.0352,12.0352,0,0,1-10.9327-12.98l6.8239-79.7084a12.0352,12.0352,0,0,1,12.98-10.9327l10.96.9383c6.576.5629,11.4957,6.4039,10.5915,16.9652l-6.8238,79.7085C272.5445,147.9229,266.7036,152.8426,260.1276,152.28Z"/><path class="cls-2" d="M31.2907,274.7248H4.8756c-4.2924.4489-4.2924.4489-4.2924-1.9218V146.2925A4.2925,4.2925,0,0,1,4.8756,142H31.2907a4.2925,4.2925,0,0,1,4.2925,4.2925v124.14A4.2925,4.2925,0,0,1,31.2907,274.7248Z"/><path class="cls-2" d="M252.8574,58.6736h23.7678a3.958,3.958,0,0,1,3.958,3.958V241.2963a0,0,0,0,1,0,0H252.8574a0,0,0,0,1,0,0V58.6736A0,0,0,0,1,252.8574,58.6736Z"/><path class="cls-2" d="M254.5832,448h-226c-3.6792,0-10.6748-21.9173-12.6056-46-1.3483-16.8178.918-27.836,1.4829-34.1573.1161-1.2994,2.6111-14.643,3.1227-15.8431l18.8554-65.2762c2.7081-6.3536,3.57-16.342,2.4865-23.1632L16.8782,128.8578A11.789,11.789,0,0,1,28.5832,115h226a11.9275,11.9275,0,0,1,7.3212,2.5087,12.0955,12.0955,0,0,1,4.3212,11.6064L238.3668,267.8929c-1.16,6.5707-.22,15.34,2.6866,21.3456L262.5832,345a139.9349,139.9349,0,0,1,4.1526,14.0872c.6689,6.7624,3.2255,28.1409,1.3224,46.8878C265.8832,427.4,257.8832,448,254.5832,448Z"/><circle class="cls-2" cx="192.6395" cy="159.263" r="67.868"/><circle class="cls-2" cx="81.6662" cy="159.263" r="67.868"/><circle class="cls-3" cx="71.5777" cy="174.0972" r="17.4256"/><circle class="cls-3" cx="202.728" cy="174.0972" r="17.4256"/><circle class="cls-4" cx="72.0362" cy="174.5558" r="8.7128"/><circle class="cls-3" cx="72.0362" cy="174.5558" r="5.5028"/><circle class="cls-4" cx="202.2694" cy="173.6387" r="8.7128"/><circle class="cls-3" cx="202.2694" cy="173.6387" r="5.5028"/><g class="cls-5"><path class="cls-6" d="M259.8506,156.0528c-.9156-13.4457-4.3982-26.6627-14.0809-37.87-15.5538-18.0034,5.758,9.9324,7.5765,41.0806.9622,16.4815-10.46,32.9726-23.408,44.94-15.3077,14.1475-44.4908,14.265-53.0923,12.02-16.8348-4.3941-31.1263-13.4222-38.0625-17.5536,1.5477-2.2421.9126-2.202-1.4519-.8519-1.5693-.9028-2.58-1.3991-2.9161-1.2839s.0056.8482,1.0957,2.3624c-1.7911,1.0841-4.1183,2.5274-6.9012,4.1472-7.484,4.356-18.2352,9.9689-30.5369,13.18-8.6015,2.2451-37.7845,2.1276-53.0923-12.02-12.9485-11.9671-24.37-28.4582-23.408-44.94,1.8185-31.1482,23.13-59.084,7.5765-41.0806-9.6827,11.2078-13.1653,24.4248-14.0809,37.87-1.4154,20.7842,5.8512,42.115,25.5984,57.4158,30.4194,23.57,72.71,17.6742,96.0276-12.0174.1341-.1708.2569-.3291.3815-.4892l.0558.0721c23.3174,29.6916,66.7012,36.0046,97.1206,12.4345C253.9994,198.1678,261.266,176.837,259.8506,156.0528Z"/></g><ellipse class="cls-6" cx="144.0832" cy="340.5" rx="3.5" ry="6.5"/><path class="cls-6" d="M149.5832,336.5c0,1.3807-1.9625.5-5,.5s-6,.8807-6-.5,2.4624-2.5,5.5-2.5S149.5832,335.1193,149.5832,336.5Z"/><polygon class="cls-6" points="112.583 395 147.033 394.761 181.483 394.523 164.44 420.837 147.396 447.151 129.99 421.075 112.583 395"/><path class="cls-2" d="M187.8891,43,99.8725,42c-2.65,0-4.6656-1.9784-4.23-4.1517L103.2294,0h86.5957l4.0572,35.42C194.2865,38.9485,197.0414,54,187.8891,43Z"/><path class="cls-7" d="M154.25,427.1057l-4.9022-4.7938-2.86-2.7966-2.7966,2.86-5,5.1132a.8485.8485,0,0,0,.0134,1.2l1.4358,1.404a1.1436,1.1436,0,0,0,1.6171-.0181l4.7938-4.9021,5.1132,5a.8482.8482,0,0,0,1.2-.0134l1.4041-1.4358A1.1435,1.1435,0,0,0,154.25,427.1057Z"/><path class="cls-7" d="M136.6577,436.4785a2.3785,2.3785,0,0,0-.9116-.72,2.7191,2.7191,0,0,0-1.14-.252,3.0637,3.0637,0,0,0-1.3023.27,3.0137,3.0137,0,0,0-.9956.7382,3.3633,3.3633,0,0,0-.6421,1.0977,3.9308,3.9308,0,0,0-.228,1.3506,3.72,3.72,0,0,0,.2158,1.2715,3.192,3.192,0,0,0,.624,1.0566,2.9237,2.9237,0,0,0,.9961.72,3.2224,3.2224,0,0,0,1.3321.2637,2.6463,2.6463,0,0,0,1.2841-.3,2.7541,2.7541,0,0,0,.9356-.84l.9722.7314a3.7422,3.7422,0,0,1-.336.3789,3.3392,3.3392,0,0,1-.6362.4912,4.4977,4.4977,0,0,1-.9536.4326,4.0784,4.0784,0,0,1-1.29.1856,4.1935,4.1935,0,0,1-1.8183-.3838,4.45,4.45,0,0,1-2.55-4.0078,4.9757,4.9757,0,0,1,.3242-1.8184,4.2894,4.2894,0,0,1,.9057-1.4394,4.044,4.044,0,0,1,1.398-.9424,4.6914,4.6914,0,0,1,1.8-.3359,4.4126,4.4126,0,0,1,1.65.3242,3.0744,3.0744,0,0,1,1.3257.9961Z"/><path class="cls-7" d="M139.19,434.6426h1.1523v3.5283h4.4038v-3.5283h1.1519v8.4961h-1.1519V439.251h-4.4038v3.8877H139.19Z"/><path class="cls-7" d="M150.7456,434.6426h1.044l3.6362,8.4961h-1.3443l-.8515-2.1h-4.0445l-.84,2.1H147.002Zm2.064,5.3877-1.584-3.8994h-.0239l-1.6079,3.8994Z"/><path class="cls-7" d="M157.2017,435.7227h-2.7364v-1.08h6.6241v1.08h-2.7359v7.416h-1.1518Z"/><path class="cls-2" d="M32.9059,277.448,15.6371,305.2142a1.087,1.087,0,0,1-.1954.2333L2.3949,317.1961A1.0854,1.0854,0,0,1,.5832,316.39V274.3236a1.0855,1.0855,0,0,1,1.1762-1.0817l17.5764,1.4746a1.085,1.085,0,0,0,.1966-.0013l16.0508-4.2829C36.0035,271.07,33.4347,277.3582,32.9059,277.448Z"/><path class="cls-2" d="M253.33,244.2252l13.9165,22.1126a.7311.7311,0,0,0,.15.1716l10.15,8.5138c.5434.4558,2.9993.9107,3.0361.1888L283.5,256.87l-2.8041-14.8463a.7706.7706,0,0,0-.9142-.7848l-14.3507,1.82c-.0534.0067-.0541-4.9059-.107-4.9083l-12.4666-3.3417C252.4906,235.314,252.9039,244.1769,253.33,244.2252Z"/><path class="cls-2" d="M254.77,243.5335l10.6765,16.6677a.49.49,0,0,0,.1294.1347l9.0489,6.4414a1.101,1.101,0,0,0,1.5162-.7305l2.1726-13.6L280.62,238.01c.0677-.4234-.3079-.6985-.8134-.5957l-14.0328,2.8543a1.05,1.05,0,0,1-.155.02l-12.2154-1.1456C253.0034,239.6122,254.3618,243.53,254.77,243.5335Z"/><path class="cls-2" d="M253.33,250.7134,266.979,290.57c.04.0644,16.521,34.0527,13.6042,3.3852V281.7c3.036.1888-.0368.7219,0,0L283.5,263.358l-2.8041-14.8464a.7707.7707,0,0,0-.9142-.7848l-14.3507,1.82c-.0534.0068-.0541-4.9059-.107-4.9082l-12.4666-9.83C254.1952,223.4442,252.9039,250.6651,253.33,250.7134Z"/><circle class="cls-7" cx="273.6412" cy="10.4107" r="2.9419"/><circle class="cls-7" cx="273.6412" cy="17.7655" r="2.9419"/><circle class="cls-7" cx="273.6412" cy="25.8558" r="2.9419"/><rect class="cls-8" y="286.3504" width="280.6276" height="20.4217"/><path class="cls-7" d="M14.9829,292.332h2.5918a4.932,4.932,0,0,1,1.0322.1079,2.8224,2.8224,0,0,1,.9.354,1.973,1.973,0,0,1,.6421.6421,1.837,1.837,0,0,1,.2456.9839,1.8645,1.8645,0,0,1-.4018,1.23,2.1735,2.1735,0,0,1-1.086.69v.024a2.1341,2.1341,0,0,1,.7622.21,2.1082,2.1082,0,0,1,.6119.45,2.0084,2.0084,0,0,1,.4018.6421,2.3528,2.3528,0,0,1-.15,1.95,2.1932,2.1932,0,0,1-.7681.7261,3.3637,3.3637,0,0,1-1.0678.3779,6.6154,6.6154,0,0,1-1.1822.1079H14.9829Zm1.0078,3.6h1.3921a5.0986,5.0986,0,0,0,.7022-.0478,1.8094,1.8094,0,0,0,.6176-.1983,1.1751,1.1751,0,0,0,.4444-.42,1.34,1.34,0,0,0,.1679-.7139,1.1826,1.1826,0,0,0-.1562-.642,1.1423,1.1423,0,0,0-.4141-.39,1.7863,1.7863,0,0,0-.5879-.1977,4.0959,4.0959,0,0,0-.666-.0542h-1.5Zm0,3.96h1.7041a3.516,3.516,0,0,0,.7378-.0781,2.1682,2.1682,0,0,0,.66-.252,1.4,1.4,0,0,0,.4741-.456,1.2588,1.2588,0,0,0,.18-.69,1.4637,1.4637,0,0,0-.1738-.7436,1.3854,1.3854,0,0,0-.4561-.4805,1.873,1.873,0,0,0-.6479-.252,3.8953,3.8953,0,0,0-.75-.0717H15.9907Z"/><path class="cls-7" d="M22.543,292.332h2.1718a10.2428,10.2428,0,0,1,1.2178.0723,3.269,3.269,0,0,1,1.0864.312,1.97,1.97,0,0,1,.78.7017,2.2844,2.2844,0,0,1,.3,1.2544,2.0687,2.0687,0,0,1-.5639,1.5117,2.6928,2.6928,0,0,1-1.56.7319l2.4121,3.9121H27.1509l-2.3042-3.8159H23.5508v3.8159H22.543Zm1.0078,3.7442h.9q.42,0,.87-.024a2.9741,2.9741,0,0,0,.8281-.1562,1.4356,1.4356,0,0,0,.624-.4141,1.1955,1.1955,0,0,0,.2461-.81,1.323,1.323,0,0,0-.18-.7325,1.2222,1.2222,0,0,0-.4742-.4257,2.0224,2.0224,0,0,0-.66-.1983,5.7216,5.7216,0,0,0-.7378-.0478h-1.416Z"/><path class="cls-7" d="M33.8228,301.0439a4.604,4.604,0,0,1-1.7818-.3359,4.2765,4.2765,0,0,1-1.4043-.93,4.1734,4.1734,0,0,1-.9238-1.416,4.975,4.975,0,0,1,0-3.564,4.1744,4.1744,0,0,1,.9238-1.416,4.2872,4.2872,0,0,1,1.4043-.93,4.8948,4.8948,0,0,1,3.564,0,4.285,4.285,0,0,1,1.4038.93,4.1744,4.1744,0,0,1,.9238,1.416,4.975,4.975,0,0,1,0,3.564,4.1734,4.1734,0,0,1-.9238,1.416,4.2743,4.2743,0,0,1-1.4038.93A4.6064,4.6064,0,0,1,33.8228,301.0439Zm0-.936a3.3029,3.3029,0,0,0,1.3623-.2759,3.2264,3.2264,0,0,0,1.062-.7558,3.4619,3.4619,0,0,0,.69-1.1221,3.9662,3.9662,0,0,0,0-2.748,3.47,3.47,0,0,0-.69-1.1221,3.2266,3.2266,0,0,0-1.062-.7559,3.5,3.5,0,0,0-2.7242,0,3.2163,3.2163,0,0,0-1.062.7559,3.4533,3.4533,0,0,0-.69,1.1221,3.9586,3.9586,0,0,0,0,2.748,3.4448,3.4448,0,0,0,.69,1.1221,3.216,3.216,0,0,0,1.062.7558A3.299,3.299,0,0,0,33.8228,300.1079Z"/><path class="cls-7" d="M40.4946,299.46a.7167.7167,0,0,1,.72.72.6748.6748,0,0,1-.2221.51.6956.6956,0,0,1-.9961,0,.674.674,0,0,1-.2217-.51.7168.7168,0,0,1,.72-.72Zm.5039-1.0079H39.9907v-6.12h1.0078Z"/><path class="cls-7" d="M52.2544,293.2681H49.4468v7.56H48.4385v-7.56H45.63v-.9361h6.624Z"/><path class="cls-7" d="M54.2944,302.0879a2.221,2.221,0,0,1-.0664.498,1.4506,1.4506,0,0,1-.2456.5284,1.4682,1.4682,0,0,1-.51.42,1.8113,1.8113,0,0,1-.8457.1738,2.2326,2.2326,0,0,1-.33-.0239,1.16,1.16,0,0,1-.3184-.0962l.1084-.8159a1.4955,1.4955,0,0,0,.4556.0722.83.83,0,0,0,.4263-.0962.6374.6374,0,0,0,.2461-.2578,1.1727,1.1727,0,0,0,.1137-.3779,3.3192,3.3192,0,0,0,.03-.4561v-6.4443h.936Zm-1.1523-9.0718a.666.666,0,0,1,.1982-.48.68.68,0,0,1,.9717,0,.6894.6894,0,1,1-1.17.48Z"/><path class="cls-7" d="M61.17,299.8081a2.8532,2.8532,0,0,1-1.104.9063,3.5009,3.5009,0,0,1-1.3916.2578,2.9043,2.9043,0,0,1-1.188-.2339,2.67,2.67,0,0,1-.894-.63,2.7548,2.7548,0,0,1-.564-.9355A3.3162,3.3162,0,0,1,55.83,298.02a3.225,3.225,0,0,1,.2158-1.1938,2.7737,2.7737,0,0,1,.6-.9361,2.7,2.7,0,0,1,.9121-.6059,3.0112,3.0112,0,0,1,1.1519-.2158,2.8709,2.8709,0,0,1,1.08.1977,2.3406,2.3406,0,0,1,.8462.5762,2.5863,2.5863,0,0,1,.5459.9238,3.7348,3.7348,0,0,1,.1919,1.2422v.3H56.8379a1.9683,1.9683,0,0,0,.1743.69,1.9913,1.9913,0,0,0,.39.5762,1.7972,1.7972,0,0,0,.564.39,1.7265,1.7265,0,0,0,.708.1435,2.2389,2.2389,0,0,0,1.0318-.2158,2.3469,2.3469,0,0,0,.7558-.6358Zm-.8037-2.292a1.6139,1.6139,0,0,0-.4683-1.1518,1.68,1.68,0,0,0-1.2236-.4322,1.73,1.73,0,0,0-1.8364,1.584Z"/><path class="cls-7" d="M62.8262,291.7563h.936v5.9278l2.5557-2.4722H67.65l-2.7119,2.5562,2.9878,3.06h-1.38l-2.7837-2.9521v2.9521h-.936Z"/><path class="cls-7" d="M72.2461,291.7563h.936v9.0718h-.936Z"/><path class="cls-7" d="M74.9214,293.0161a.666.666,0,0,1,.1982-.48.68.68,0,0,1,.9717,0,.6894.6894,0,1,1-1.17.48Zm.2163,2.1958h.936v5.6162h-.936Z"/><path class="cls-7" d="M83.5376,300.5762a3.1932,3.1932,0,0,1-.7861,2.334,3.0531,3.0531,0,0,1-2.274.7978,4.3933,4.3933,0,0,1-1.4941-.24,3.5324,3.5324,0,0,1-1.2661-.8282l.6723-.768a3.2577,3.2577,0,0,0,.9419.726,2.8817,2.8817,0,0,0,2.1841.06,1.6431,1.6431,0,0,0,.6538-.5039,1.92,1.92,0,0,0,.336-.7261,3.7146,3.7146,0,0,0,.0962-.852v-.72h-.024a2.03,2.03,0,0,1-.8764.7919,2.5851,2.5851,0,0,1-1.104.252,3.2983,3.2983,0,0,1-1.2119-.2158,2.8158,2.8158,0,0,1-.9478-.6,2.65,2.65,0,0,1-.6123-.9116,3.0236,3.0236,0,0,1-.2158-1.1524,3.3752,3.3752,0,0,1,.2158-1.2358,2.5848,2.5848,0,0,1,.6064-.93,2.6583,2.6583,0,0,1,.9419-.582,3.5106,3.5106,0,0,1,1.2237-.2036,2.5686,2.5686,0,0,1,.5761.0659,2.4078,2.4078,0,0,1,.5581.2036,2.0135,2.0135,0,0,1,.4859.3481,1.9043,1.9043,0,0,1,.36.4864h.024v-.96h.936Zm-4.92-2.5562a1.9916,1.9916,0,0,0,1.2124,1.86,1.8994,1.8994,0,0,0,.7676.1562,2.0442,2.0442,0,0,0,.852-.1679,1.883,1.883,0,0,0,1.02-1.0982,2.2642,2.2642,0,0,0,.1324-.7739,2.333,2.333,0,0,0-.1441-.834,1.9336,1.9336,0,0,0-.4082-.6538,1.8,1.8,0,0,0-.6357-.4263,2.173,2.173,0,0,0-.8164-.15,1.9782,1.9782,0,0,0-.81.1621,1.8436,1.8436,0,0,0-.624.4439,2.0442,2.0442,0,0,0-.4024.66A2.2962,2.2962,0,0,0,78.6172,298.02Z"/><path class="cls-7" d="M90.2812,299.8081a2.8532,2.8532,0,0,1-1.104.9063,3.5006,3.5006,0,0,1-1.3916.2578,2.9035,2.9035,0,0,1-1.1879-.2339,2.6705,2.6705,0,0,1-.8941-.63,2.7564,2.7564,0,0,1-.564-.9355,3.3162,3.3162,0,0,1-.1982-1.1524,3.227,3.227,0,0,1,.2158-1.1938,2.7767,2.7767,0,0,1,.6-.9361,2.7,2.7,0,0,1,.9121-.6059,3.0116,3.0116,0,0,1,1.1519-.2158,2.8718,2.8718,0,0,1,1.08.1977,2.3424,2.3424,0,0,1,.8462.5762,2.5892,2.5892,0,0,1,.5459.9238,3.7374,3.7374,0,0,1,.1919,1.2422v.3H85.9492a1.9683,1.9683,0,0,0,.1743.69,1.99,1.99,0,0,0,.39.5762,1.7956,1.7956,0,0,0,.5639.39,1.7268,1.7268,0,0,0,.708.1435,2.2386,2.2386,0,0,0,1.0318-.2158,2.3459,2.3459,0,0,0,.7558-.6358Zm-.8037-2.292a1.6138,1.6138,0,0,0-.4682-1.1518,1.68,1.68,0,0,0-1.2237-.4322,1.73,1.73,0,0,0-1.8364,1.584Z"/><path class="cls-7" d="M99.9414,299.832h-.0239a2.1441,2.1441,0,0,1-.834.81,2.5991,2.5991,0,0,1-1.3262.33,2.7643,2.7643,0,0,1-1.104-.2222,2.6917,2.6917,0,0,1-.894-.6177,2.9028,2.9028,0,0,1-.5943-.936,3.3125,3.3125,0,0,1,0-2.3521,2.8511,2.8511,0,0,1,.6-.936,2.6888,2.6888,0,0,1,.93-.6182,3.1751,3.1751,0,0,1,1.2061-.2216,2.5,2.5,0,0,1,1.122.2519,2.7628,2.7628,0,0,1,.8941.708h.0239v-4.272h.936v9.0718h-.936Zm0-1.812a2.3836,2.3836,0,0,0-.1382-.8218,1.8948,1.8948,0,0,0-1.0317-1.104,2.1655,2.1655,0,0,0-1.6441,0,1.8944,1.8944,0,0,0-1.0322,1.104,2.514,2.514,0,0,0,0,1.6441,1.8975,1.8975,0,0,0,1.0322,1.104,2.1717,2.1717,0,0,0,1.6441,0,1.8979,1.8979,0,0,0,1.0317-1.104A2.3844,2.3844,0,0,0,99.9414,298.02Z"/><path class="cls-7" d="M107.6211,299.8081a2.8532,2.8532,0,0,1-1.104.9063,3.5009,3.5009,0,0,1-1.3916.2578,2.9043,2.9043,0,0,1-1.188-.2339,2.67,2.67,0,0,1-.894-.63,2.7532,2.7532,0,0,1-.564-.9355,3.3162,3.3162,0,0,1-.1983-1.1524,3.225,3.225,0,0,1,.2159-1.1938,2.7737,2.7737,0,0,1,.6-.9361,2.6983,2.6983,0,0,1,.9121-.6059,3.0107,3.0107,0,0,1,1.1518-.2158,2.8714,2.8714,0,0,1,1.08.1977,2.3415,2.3415,0,0,1,.8462.5762,2.5877,2.5877,0,0,1,.5459.9238,3.7374,3.7374,0,0,1,.1919,1.2422v.3h-4.5361a1.9683,1.9683,0,0,0,.1743.69,1.9913,1.9913,0,0,0,.39.5762,1.7972,1.7972,0,0,0,.564.39,1.7261,1.7261,0,0,0,.708.1435,2.2382,2.2382,0,0,0,1.0317-.2158,2.3462,2.3462,0,0,0,.7559-.6358Zm-.8037-2.292a1.6139,1.6139,0,0,0-.4683-1.1518,1.68,1.68,0,0,0-1.2236-.4322,1.73,1.73,0,0,0-1.8364,1.584Z"/><path class="cls-7" d="M112.3491,296.0039h-1.6557v2.8081q0,.2762.0117.51a1.0471,1.0471,0,0,0,.0962.4077.6394.6394,0,0,0,.2519.2763.932.932,0,0,0,.48.1016,1.922,1.922,0,0,0,.42-.0478,1.7388,1.7388,0,0,0,.4082-.1441l.0357.8521a2.1372,2.1372,0,0,1-.5337.1562,3.4967,3.4967,0,0,1-.5581.0479,2.0324,2.0324,0,0,1-.8042-.1319,1.0935,1.0935,0,0,1-.4678-.372,1.3844,1.3844,0,0,1-.2222-.5943,5.2907,5.2907,0,0,1-.0537-.7861v-3.084h-1.2241v-.792h1.2241v-1.5957h.9361v1.5957h1.6557Z"/><path class="cls-7" d="M116.8369,291.7563h.936v4.2359h.024a1.4963,1.4963,0,0,1,.2636-.33,1.974,1.974,0,0,1,.4024-.2939,2.4485,2.4485,0,0,1,.522-.2159,2.171,2.171,0,0,1,.6118-.0839,2.46,2.46,0,0,1,.9541.1679,1.794,1.794,0,0,1,.666.4678,1.9024,1.9024,0,0,1,.39.7261,3.2677,3.2677,0,0,1,.126.93v3.4677h-.936v-3.372a1.7956,1.7956,0,0,0-.312-1.1158,1.1472,1.1472,0,0,0-.9722-.4082,1.8325,1.8325,0,0,0-.7861.1558,1.403,1.403,0,0,0-.54.4443,1.9941,1.9941,0,0,0-.312.6841,3.5154,3.5154,0,0,0-.1016.876v2.7358h-.936Z"/><path class="cls-7" d="M128.5244,299.8081a2.8532,2.8532,0,0,1-1.104.9063,3.5009,3.5009,0,0,1-1.3916.2578,2.9043,2.9043,0,0,1-1.188-.2339,2.67,2.67,0,0,1-.894-.63,2.7532,2.7532,0,0,1-.564-.9355,3.3162,3.3162,0,0,1-.1982-1.1524,3.225,3.225,0,0,1,.2158-1.1938,2.7737,2.7737,0,0,1,.6-.9361,2.6983,2.6983,0,0,1,.9121-.6059,3.0109,3.0109,0,0,1,1.1519-.2158,2.8713,2.8713,0,0,1,1.08.1977,2.3406,2.3406,0,0,1,.8462.5762,2.5863,2.5863,0,0,1,.5459.9238,3.7348,3.7348,0,0,1,.1919,1.2422v.3h-4.5361a1.9683,1.9683,0,0,0,.1743.69,1.9913,1.9913,0,0,0,.39.5762,1.7972,1.7972,0,0,0,.564.39,1.7265,1.7265,0,0,0,.708.1435,2.2382,2.2382,0,0,0,1.0317-.2158,2.3462,2.3462,0,0,0,.7559-.6358Zm-.8037-2.292a1.6139,1.6139,0,0,0-.4683-1.1518,1.68,1.68,0,0,0-1.2236-.4322,1.73,1.73,0,0,0-1.8364,1.584Z"/><path class="cls-7" d="M130.1807,296.5439q0-.3837-.0245-.72c-.0161-.2241-.0239-.4277-.0239-.6123h.8882q0,.2286.0122.4561t.0117.4682h.024a1.6218,1.6218,0,0,1,.27-.396,1.9555,1.9555,0,0,1,.414-.3423,2.2308,2.2308,0,0,1,1.188-.3295,1.5827,1.5827,0,0,1,.1919.0117.8735.8735,0,0,1,.1924.0478l-.06.9483a1.75,1.75,0,0,0-.5043-.0723,1.4219,1.4219,0,0,0-1.254.5581,2.6364,2.6364,0,0,0-.39,1.53v2.7358h-.936Z"/><path class="cls-7" d="M137.6919,291.7563h.936v4.272h.024a2.7624,2.7624,0,0,1,.894-.708,2.5,2.5,0,0,1,1.1221-.2519,3.1764,3.1764,0,0,1,1.206.2216,2.6963,2.6963,0,0,1,.93.6182,2.8387,2.8387,0,0,1,.6.936,3.3053,3.3053,0,0,1,0,2.3521,2.8929,2.8929,0,0,1-.5937.936,2.6972,2.6972,0,0,1-.8941.6177,2.7657,2.7657,0,0,1-1.104.2222,2.5978,2.5978,0,0,1-1.3262-.33,2.14,2.14,0,0,1-.8339-.81h-.024v.9961h-.936Zm.936,6.2637a2.3726,2.3726,0,0,0,.1382.8223,1.8984,1.8984,0,0,0,1.0318,1.104,2.1714,2.1714,0,0,0,1.644,0,1.8967,1.8967,0,0,0,1.0322-1.104,2.5226,2.5226,0,0,0,0-1.6441,1.8936,1.8936,0,0,0-1.0322-1.104,2.1652,2.1652,0,0,0-1.644,0,1.8954,1.8954,0,0,0-1.0318,1.104A2.3718,2.3718,0,0,0,138.6279,298.02Z"/><path class="cls-7" d="M144.94,293.0161a.6661.6661,0,0,1,.1983-.48.68.68,0,0,1,.9717,0,.6895.6895,0,1,1-1.17.48Zm.2163,2.1958h.9361v5.6162h-.9361Z"/><path class="cls-7" d="M148.0361,291.7563h.9361v9.0718h-.9361Z"/><path class="cls-7" d="M150.9282,291.7563h.9361v9.0718h-.9361Z"/><path class="cls-7" d="M158.74,299.8081a2.8532,2.8532,0,0,1-1.104.9063,3.5006,3.5006,0,0,1-1.3916.2578,2.9035,2.9035,0,0,1-1.1879-.2339,2.6705,2.6705,0,0,1-.8941-.63,2.7564,2.7564,0,0,1-.564-.9355A3.3162,3.3162,0,0,1,153.4,298.02a3.227,3.227,0,0,1,.2158-1.1938,2.7767,2.7767,0,0,1,.6-.9361,2.7,2.7,0,0,1,.9121-.6059,3.0116,3.0116,0,0,1,1.1519-.2158,2.8718,2.8718,0,0,1,1.08.1977,2.3424,2.3424,0,0,1,.8462.5762,2.5892,2.5892,0,0,1,.5459.9238,3.7374,3.7374,0,0,1,.1918,1.2422v.3h-4.5361a1.9683,1.9683,0,0,0,.1743.69,1.99,1.99,0,0,0,.39.5762,1.7956,1.7956,0,0,0,.5639.39,1.7268,1.7268,0,0,0,.708.1435,2.2386,2.2386,0,0,0,1.0318-.2158,2.3459,2.3459,0,0,0,.7558-.6358Zm-.8037-2.292a1.6138,1.6138,0,0,0-.4682-1.1518,1.68,1.68,0,0,0-1.2237-.4322,1.73,1.73,0,0,0-1.8364,1.584Z"/><path class="cls-7" d="M165.064,299.832h-.024a2.1438,2.1438,0,0,1-.8339.81,2.5991,2.5991,0,0,1-1.3262.33,2.7639,2.7639,0,0,1-1.104-.2222,2.6921,2.6921,0,0,1-.8941-.6177,2.9025,2.9025,0,0,1-.5942-.936,3.3125,3.3125,0,0,1,0-2.3521,2.8479,2.8479,0,0,1,.6-.936,2.6878,2.6878,0,0,1,.93-.6182,3.1746,3.1746,0,0,1,1.206-.2216,2.5,2.5,0,0,1,1.1221.2519,2.7624,2.7624,0,0,1,.894.708h.024v-4.272H166v9.0718h-.936Zm0-1.812a2.3836,2.3836,0,0,0-.1382-.8218,1.8954,1.8954,0,0,0-1.0318-1.104,2.1652,2.1652,0,0,0-1.644,0,1.8936,1.8936,0,0,0-1.0322,1.104,2.514,2.514,0,0,0,0,1.6441,1.8967,1.8967,0,0,0,1.0322,1.104,2.1714,2.1714,0,0,0,1.644,0,1.8984,1.8984,0,0,0,1.0318-1.104A2.3844,2.3844,0,0,0,165.064,298.02Z"/><path class="cls-7" d="M172.7446,299.8081a2.8531,2.8531,0,0,1-1.1054.9063,3.5,3.5,0,0,1-1.3907.2578,2.9042,2.9042,0,0,1-1.1884-.2339,2.6705,2.6705,0,0,1-.8941-.63,2.7546,2.7546,0,0,1-.5639-.9355,3.3139,3.3139,0,0,1-.1983-1.1524,3.227,3.227,0,0,1,.2158-1.1938,2.7767,2.7767,0,0,1,.6-.9361,2.7,2.7,0,0,1,.9121-.6059,3.0116,3.0116,0,0,1,1.1519-.2158,2.87,2.87,0,0,1,1.08.1977,2.34,2.34,0,0,1,.8457.5762,2.5967,2.5967,0,0,1,.5468.9238,3.7609,3.7609,0,0,1,.1915,1.2422v.3h-4.5362a1.9683,1.9683,0,0,0,.1743.69,1.99,1.99,0,0,0,.39.5762,1.7956,1.7956,0,0,0,.5639.39,1.7275,1.7275,0,0,0,.7085.1435,2.235,2.235,0,0,0,1.0313-.2158,2.3617,2.3617,0,0,0,.7558-.6358Zm-.8047-2.292a1.608,1.608,0,0,0-.4687-1.1518,1.6761,1.6761,0,0,0-1.2227-.4322,1.73,1.73,0,0,0-1.8369,1.584Z"/><path class="cls-7" d="M177.6636,295.9321a2.63,2.63,0,0,1,1.0254-.6538,3.5927,3.5927,0,0,1,1.206-.21,2.3756,2.3756,0,0,1,1.8.5878,2.5314,2.5314,0,0,1,.5528,1.7881v2.4117q0,.24.0234.498c.0156.1724.0361.33.0605.4741h-.9a1.9411,1.9411,0,0,1-.0538-.4258c-.0048-.1562-.0058-.2944-.0058-.414h-.0244a2.1977,2.1977,0,0,1-.7383.708,2.1271,2.1271,0,0,1-1.1094.2759,2.9506,2.9506,0,0,1-.8105-.1079,2.035,2.035,0,0,1-.66-.3184,1.56,1.56,0,0,1-.4492-.522,1.4892,1.4892,0,0,1-.168-.72,1.5634,1.5634,0,0,1,.3594-1.0923,2.1877,2.1877,0,0,1,.8945-.5879,4.3788,4.3788,0,0,1,1.1514-.24q.6182-.0483,1.1338-.0484h.36v-.1679a1.1465,1.1465,0,0,0-.3662-.9239,1.5336,1.5336,0,0,0-1.0254-.312,2.7518,2.7518,0,0,0-.8945.15,2.1491,2.1491,0,0,0-.7734.4619Zm2.7119,2.1958a3.3626,3.3626,0,0,0-1.4287.252.8566.8566,0,0,0-.5274.8281.8144.8144,0,0,0,.3535.75,1.6288,1.6288,0,0,0,.8819.2222,1.7207,1.7207,0,0,0,.7148-.1382,1.5149,1.5149,0,0,0,.51-.3657,1.5709,1.5709,0,0,0,.3115-.5342,2.1636,2.1636,0,0,0,.12-.6538v-.36Z"/><path class="cls-7" d="M184.4429,296.0039h-1.2246v-.792h1.2246v-1.26a4.2581,4.2581,0,0,1,.0957-.9418,1.9191,1.9191,0,0,1,.33-.7383,1.5653,1.5653,0,0,1,.6181-.4859,2.2966,2.2966,0,0,1,.9483-.1738,2.2244,2.2244,0,0,1,.3837.0356,1.1119,1.1119,0,0,1,.336.1084l-.1319.84a1.8964,1.8964,0,0,0-.6367-.12,1.07,1.07,0,0,0-.5634.126.7811.7811,0,0,0-.3057.3481,1.4656,1.4656,0,0,0-.12.5337c-.0127.2085-.0186.4321-.0186.6723v1.0557h1.3682v.792h-1.3682v4.8242h-.9355Z"/><path class="cls-7" d="M195.2788,293.832a1.4816,1.4816,0,0,0-.6719-.5937,2.1419,2.1419,0,0,0-.8759-.1861,2.6169,2.6169,0,0,0-.66.084,1.9691,1.9691,0,0,0-.582.252,1.2682,1.2682,0,0,0-.4141.4438,1.3017,1.3017,0,0,0-.1562.648,1.3366,1.3366,0,0,0,.0908.51,1.0624,1.0624,0,0,0,.2939.4019,2.17,2.17,0,0,0,.5518.3359,7.5814,7.5814,0,0,0,.8515.312q.4923.156.9541.336a3.2159,3.2159,0,0,1,.8165.456,2.0256,2.0256,0,0,1,.5634.69,2.6038,2.6038,0,0,1-.042,2.1421,2.3053,2.3053,0,0,1-.666.7739,2.8839,2.8839,0,0,1-.9531.456,4.1509,4.1509,0,0,1-1.1162.15,4.2533,4.2533,0,0,1-.7442-.0659,3.5312,3.5312,0,0,1-.7138-.2041,2.8918,2.8918,0,0,1-.6426-.36,2.1575,2.1575,0,0,1-.5156-.5459l.8642-.708a1.7739,1.7739,0,0,0,.7676.708,2.3511,2.3511,0,0,0,1.6983.144,1.9734,1.9734,0,0,0,.5937-.2822,1.5287,1.5287,0,0,0,.4316-.4619,1.1966,1.1966,0,0,0,.169-.6358,1.3567,1.3567,0,0,0-.1328-.6421,1.1806,1.1806,0,0,0-.4073-.4262,3.1575,3.1575,0,0,0-.6962-.3238q-.42-.1443-.9844-.3359a6.2641,6.2641,0,0,1-.84-.33,2.5732,2.5732,0,0,1-.666-.456,1.9636,1.9636,0,0,1-.4443-.648,2.3045,2.3045,0,0,1-.1611-.9062,2.183,2.183,0,0,1,.8877-1.83,2.95,2.95,0,0,1,.9238-.4619,3.9186,3.9186,0,0,1,2.3935.0659,2.5767,2.5767,0,0,1,1.0625.7744Z"/><path class="cls-7" d="M197.4272,298.02a3.0469,3.0469,0,0,1,.2276-1.2,2.8488,2.8488,0,0,1,.624-.93,2.7734,2.7734,0,0,1,.9483-.6059,3.4427,3.4427,0,0,1,2.3994,0,2.7739,2.7739,0,0,1,.9482.6059,2.8488,2.8488,0,0,1,.624.93,3.265,3.265,0,0,1,0,2.4,2.8456,2.8456,0,0,1-.624.93,2.7662,2.7662,0,0,1-.9482.6064,3.4412,3.4412,0,0,1-2.3994,0,2.7656,2.7656,0,0,1-.9483-.6064,2.8456,2.8456,0,0,1-.624-.93A3.0487,3.0487,0,0,1,197.4272,298.02Zm1.0079,0a2.3843,2.3843,0,0,0,.1377.8223,1.9007,1.9007,0,0,0,1.0322,1.104,2.17,2.17,0,0,0,1.6435,0,1.9013,1.9013,0,0,0,1.0323-1.104,2.5226,2.5226,0,0,0,0-1.6441,1.8982,1.8982,0,0,0-1.0323-1.104,2.1639,2.1639,0,0,0-1.6435,0,1.8977,1.8977,0,0,0-1.0322,1.104A2.3835,2.3835,0,0,0,198.4351,298.02Z"/><path class="cls-7" d="M204.8306,295.2119h.9365v.8164h.0234a2.7488,2.7488,0,0,1,.8946-.708,2.4964,2.4964,0,0,1,1.122-.2519,3.1788,3.1788,0,0,1,1.2061.2216,2.6951,2.6951,0,0,1,.93.6182,2.8419,2.8419,0,0,1,.6.936,3.3125,3.3125,0,0,1,0,2.3521,2.8931,2.8931,0,0,1-.5938.936,2.6947,2.6947,0,0,1-.8935.6177,2.772,2.772,0,0,1-1.1045.2222,2.5978,2.5978,0,0,1-1.3262-.33,2.1373,2.1373,0,0,1-.834-.81h-.0234v3.732h-.9365Zm.9365,2.8081a2.3843,2.3843,0,0,0,.1377.8223,1.9007,1.9007,0,0,0,1.0322,1.104,2.17,2.17,0,0,0,1.6436,0,1.9015,1.9015,0,0,0,1.0322-1.104,2.5226,2.5226,0,0,0,0-1.6441,1.8985,1.8985,0,0,0-1.0322-1.104,2.1642,2.1642,0,0,0-1.6436,0,1.8977,1.8977,0,0,0-1.0322,1.104A2.3835,2.3835,0,0,0,205.7671,298.02Z"/><path class="cls-7" d="M212.21,291.7563h.9366v4.2359h.0234a1.5061,1.5061,0,0,1,.2647-.33,1.9656,1.9656,0,0,1,.4013-.2939,2.4529,2.4529,0,0,1,.5225-.2159,2.167,2.167,0,0,1,.6123-.0839,2.4565,2.4565,0,0,1,.9531.1679,1.7843,1.7843,0,0,1,.666.4678,1.89,1.89,0,0,1,.3907.7261,3.2713,3.2713,0,0,1,.1259.93v3.4677H216.17v-3.372a1.7956,1.7956,0,0,0-.3115-1.1158,1.1461,1.1461,0,0,0-.9717-.4082,1.8294,1.8294,0,0,0-.7861.1558,1.3928,1.3928,0,0,0-.54.4443,1.9854,1.9854,0,0,0-.3125.6841,3.5439,3.5439,0,0,0-.1015.876v2.7358H212.21Z"/><path class="cls-7" d="M218.7505,293.0161a.668.668,0,0,1,.1982-.48.68.68,0,0,1,.9717,0,.6894.6894,0,1,1-1.17.48Zm.2158,2.1958h.9365v5.6162h-.9365Z"/><path class="cls-7" d="M221.6909,295.9321a2.63,2.63,0,0,1,1.0254-.6538,3.5937,3.5937,0,0,1,1.2061-.21,2.3759,2.3759,0,0,1,1.8.5878,2.5318,2.5318,0,0,1,.5527,1.7881v2.4117q0,.24.0234.498c.0157.1724.0362.33.0606.4741h-.9a1.9473,1.9473,0,0,1-.0537-.4258c-.0049-.1562-.0059-.2944-.0059-.414h-.0244a2.1977,2.1977,0,0,1-.7383.708,2.127,2.127,0,0,1-1.1093.2759,2.9518,2.9518,0,0,1-.8106-.1079,2.0345,2.0345,0,0,1-.66-.3184,1.5609,1.5609,0,0,1-.4493-.522,1.4892,1.4892,0,0,1-.1679-.72,1.5634,1.5634,0,0,1,.3593-1.0923,2.1881,2.1881,0,0,1,.8946-.5879,4.3772,4.3772,0,0,1,1.1513-.24q.6182-.0483,1.1338-.0484h.36v-.1679a1.1468,1.1468,0,0,0-.3662-.9239,1.5339,1.5339,0,0,0-1.0254-.312,2.7524,2.7524,0,0,0-.8946.15,2.15,2.15,0,0,0-.7734.4619Zm2.7119,2.1958a3.3629,3.3629,0,0,0-1.4287.252.8567.8567,0,0,0-.5273.8281.8144.8144,0,0,0,.3535.75,1.6284,1.6284,0,0,0,.8818.2222,1.7209,1.7209,0,0,0,.7149-.1382,1.5155,1.5155,0,0,0,.51-.3657,1.57,1.57,0,0,0,.3116-.5342,2.1667,2.1667,0,0,0,.12-.6538v-.36Z"/><path class="cls-7" d="M231.8062,296.0039h-1.2247v-.792h1.2247v-1.26a4.2581,4.2581,0,0,1,.0957-.9418,1.92,1.92,0,0,1,.33-.7383,1.5656,1.5656,0,0,1,.6182-.4859,2.2965,2.2965,0,0,1,.9482-.1738,2.2246,2.2246,0,0,1,.3838.0356,1.1119,1.1119,0,0,1,.336.1084l-.1319.84a1.8964,1.8964,0,0,0-.6367-.12,1.0709,1.0709,0,0,0-.5635.126.7815.7815,0,0,0-.3056.3481,1.4656,1.4656,0,0,0-.12.5337c-.0127.2085-.0186.4321-.0186.6723v1.0557H234.11v.792h-1.3682v4.8242h-.9355Z"/><path class="cls-7" d="M235.106,296.5439q0-.3837-.0235-.72c-.0166-.2241-.0244-.4277-.0244-.6123h.8877c0,.1524.0049.3042.0127.4561s.0117.3081.0117.4682h.0244a1.5922,1.5922,0,0,1,.27-.396,1.9555,1.9555,0,0,1,.414-.3423,2.2309,2.2309,0,0,1,1.1885-.3295,1.5869,1.5869,0,0,1,.1914.0117.868.868,0,0,1,.1924.0478l-.0606.9483a1.749,1.749,0,0,0-.5039-.0723,1.4213,1.4213,0,0,0-1.2539.5581,2.6364,2.6364,0,0,0-.39,1.53v2.7358h-.9365Z"/><path class="cls-7" d="M239.2583,295.9321a2.63,2.63,0,0,1,1.0254-.6538,3.5931,3.5931,0,0,1,1.206-.21,2.376,2.376,0,0,1,1.8.5878,2.5318,2.5318,0,0,1,.5527,1.7881v2.4117q0,.24.0234.498c.0156.1724.0362.33.0606.4741h-.9a1.9473,1.9473,0,0,1-.0537-.4258c-.0049-.1562-.0059-.2944-.0059-.414h-.0244a2.1977,2.1977,0,0,1-.7383.708,2.1271,2.1271,0,0,1-1.1094.2759,2.9511,2.9511,0,0,1-.81-.1079,2.035,2.035,0,0,1-.66-.3184,1.56,1.56,0,0,1-.4492-.522,1.4892,1.4892,0,0,1-.168-.72,1.5634,1.5634,0,0,1,.3594-1.0923,2.1881,2.1881,0,0,1,.8946-.5879,4.3772,4.3772,0,0,1,1.1513-.24q.6182-.0483,1.1338-.0484h.36v-.1679a1.1468,1.1468,0,0,0-.3662-.9239,1.5339,1.5339,0,0,0-1.0254-.312,2.7524,2.7524,0,0,0-.8946.15,2.1491,2.1491,0,0,0-.7734.4619Zm2.7119,2.1958a3.3626,3.3626,0,0,0-1.4287.252.8565.8565,0,0,0-.5273.8281.8142.8142,0,0,0,.3535.75,1.6282,1.6282,0,0,0,.8818.2222,1.7209,1.7209,0,0,0,.7149-.1382,1.5155,1.5155,0,0,0,.51-.3657,1.5676,1.5676,0,0,0,.3115-.5342,2.1668,2.1668,0,0,0,.12-.6538v-.36Z"/><path class="cls-7" d="M253.7651,293.2681l-3.3955,7.56H249.229l3.4561-7.56h-4.1036v-.9361h5.1836Z"/><path class="cls-7" d="M256.3452,299.46a.7167.7167,0,0,1,.72.72.6761.6761,0,0,1-.2216.51.6956.6956,0,0,1-.9961,0,.6723.6723,0,0,1-.2217-.51.7167.7167,0,0,1,.72-.72Z"/><path class="cls-7" d="M259.0688,292.332h2.5928a4.9276,4.9276,0,0,1,1.0313.1079,2.8225,2.8225,0,0,1,.9.354,1.9782,1.9782,0,0,1,.6416.6421,1.8335,1.8335,0,0,1,.2461.9839,1.8664,1.8664,0,0,1-.4014,1.23,2.18,2.18,0,0,1-1.0859.69v.024a2.1355,2.1355,0,0,1,.7617.21,2.1068,2.1068,0,0,1,.6113.45,1.9908,1.9908,0,0,1,.4023.6421,2.35,2.35,0,0,1-.1494,1.95,2.191,2.191,0,0,1-.7685.7261,3.3672,3.3672,0,0,1-1.0684.3779,6.6088,6.6088,0,0,1-1.1816.1079h-2.5323Zm1.0088,3.6h1.3916a5.0975,5.0975,0,0,0,.7022-.0478,1.82,1.82,0,0,0,.6182-.1983,1.1764,1.1764,0,0,0,.4433-.42,1.3355,1.3355,0,0,0,.168-.7139,1.1871,1.1871,0,0,0-.1553-.642,1.1462,1.1462,0,0,0-.4141-.39,1.7945,1.7945,0,0,0-.5878-.1977,4.1063,4.1063,0,0,0-.6661-.0542h-1.5Zm0,3.96h1.7032a3.52,3.52,0,0,0,.7382-.0781,2.1682,2.1682,0,0,0,.66-.252,1.3936,1.3936,0,0,0,.4736-.456,1.2549,1.2549,0,0,0,.1807-.69,1.4688,1.4688,0,0,0-.1738-.7436,1.389,1.389,0,0,0-.4561-.4805,1.88,1.88,0,0,0-.6484-.252,3.8953,3.8953,0,0,0-.75-.0717h-1.7276Z"/><path class="cls-7" d="M267.2407,299.46a.7167.7167,0,0,1,.72.72.6761.6761,0,0,1-.2216.51.6956.6956,0,0,1-.9961,0,.6723.6723,0,0,1-.2217-.51.7168.7168,0,0,1,.72-.72Zm.5039-1.0079h-1.0078v-6.12h1.0078Z"/></svg>
